G75*
%MOIN*%
%OFA0B0*%
%FSLAX24Y24*%
%IPPOS*%
%LPD*%
%AMOC8*
5,1,8,0,0,1.08239X$1,22.5*
%
%ADD10C,0.0040*%
%ADD11C,0.0030*%
%ADD12C,0.0080*%
%ADD13C,0.0050*%
%ADD14R,0.0167X0.0128*%
%ADD15R,0.0138X0.0138*%
%ADD16C,0.0060*%
%ADD17C,0.0020*%
%ADD18C,0.0000*%
%ADD19C,0.0010*%
%ADD20C,0.0100*%
D10*
X006729Y002470D02*
X006729Y002930D01*
X006959Y002930D01*
X007035Y002854D01*
X007035Y002700D01*
X006959Y002623D01*
X006729Y002623D01*
X006882Y002623D02*
X007035Y002470D01*
X007189Y002470D02*
X007496Y002470D01*
X007649Y002470D02*
X007956Y002470D01*
X007803Y002470D02*
X007803Y002930D01*
X007649Y002777D01*
X007342Y002930D02*
X007342Y002470D01*
X007189Y002777D02*
X007342Y002930D01*
X007905Y003799D02*
X007828Y003876D01*
X007828Y004029D01*
X007905Y004106D01*
X007828Y004260D02*
X007828Y004567D01*
X007905Y004567D01*
X008212Y004260D01*
X008289Y004260D01*
X008212Y004106D02*
X008289Y004029D01*
X008289Y003876D01*
X008212Y003799D01*
X007905Y003799D01*
X008787Y001330D02*
X008787Y000870D01*
X009094Y000870D01*
X009247Y000870D02*
X009554Y000870D01*
X009708Y000870D02*
X009938Y000870D01*
X010015Y000947D01*
X010015Y001254D01*
X009938Y001330D01*
X009708Y001330D01*
X009708Y000870D01*
X009401Y001100D02*
X009247Y001100D01*
X009247Y001330D02*
X009247Y000870D01*
X009247Y001330D02*
X009554Y001330D01*
X010168Y001254D02*
X010245Y001330D01*
X010398Y001330D01*
X010475Y001254D01*
X010475Y001177D01*
X010168Y000870D01*
X010475Y000870D01*
X014979Y005590D02*
X015286Y005590D01*
X015439Y005590D02*
X015746Y005590D01*
X015593Y005590D02*
X015593Y006051D01*
X015439Y005897D01*
X014979Y006051D02*
X014979Y005590D01*
X013375Y006147D02*
X013375Y006454D01*
X013298Y006530D01*
X013145Y006530D01*
X013068Y006454D01*
X013068Y006377D01*
X013145Y006300D01*
X013375Y006300D01*
X013375Y006147D02*
X013298Y006070D01*
X013145Y006070D01*
X013068Y006147D01*
X012915Y006147D02*
X012838Y006070D01*
X012684Y006070D01*
X012608Y006147D01*
X012608Y006454D01*
X012684Y006530D01*
X012838Y006530D01*
X012915Y006454D01*
X010125Y008520D02*
X009818Y008520D01*
X009972Y008520D02*
X009972Y008980D01*
X009818Y008827D01*
X009665Y008904D02*
X009588Y008980D01*
X009358Y008980D01*
X009358Y008520D01*
X009588Y008520D01*
X009665Y008597D01*
X009665Y008904D01*
X009204Y008980D02*
X008897Y008980D01*
X008897Y008520D01*
X009204Y008520D01*
X009051Y008750D02*
X008897Y008750D01*
X008744Y008520D02*
X008437Y008520D01*
X008437Y008980D01*
X006546Y010120D02*
X006239Y010120D01*
X006392Y010120D02*
X006392Y010580D01*
X006239Y010427D01*
X006085Y010504D02*
X006085Y010350D01*
X006009Y010273D01*
X005779Y010273D01*
X005932Y010273D02*
X006085Y010120D01*
X005779Y010120D02*
X005779Y010580D01*
X006009Y010580D01*
X006085Y010504D01*
X008634Y014220D02*
X008558Y014297D01*
X008558Y014604D01*
X008634Y014680D01*
X008788Y014680D01*
X008865Y014604D01*
X009018Y014604D02*
X009095Y014680D01*
X009248Y014680D01*
X009325Y014604D01*
X009325Y014527D01*
X009248Y014450D01*
X009325Y014373D01*
X009325Y014297D01*
X009248Y014220D01*
X009095Y014220D01*
X009018Y014297D01*
X008865Y014297D02*
X008788Y014220D01*
X008634Y014220D01*
X009172Y014450D02*
X009248Y014450D01*
X010578Y015847D02*
X010655Y015770D01*
X010962Y015770D01*
X011039Y015847D01*
X011039Y016000D01*
X010962Y016077D01*
X010962Y016230D02*
X011039Y016307D01*
X011039Y016461D01*
X010962Y016537D01*
X010885Y016537D01*
X010808Y016461D01*
X010808Y016230D01*
X010962Y016230D01*
X010808Y016230D02*
X010655Y016384D01*
X010578Y016537D01*
X010655Y016077D02*
X010578Y016000D01*
X010578Y015847D01*
X011728Y016847D02*
X011805Y016770D01*
X012112Y016770D01*
X012189Y016847D01*
X012189Y017000D01*
X012112Y017077D01*
X012189Y017230D02*
X011882Y017537D01*
X011805Y017537D01*
X011728Y017461D01*
X011728Y017307D01*
X011805Y017230D01*
X011805Y017077D02*
X011728Y017000D01*
X011728Y016847D01*
X012189Y017230D02*
X012189Y017537D01*
X013228Y018370D02*
X013228Y018600D01*
X013305Y018677D01*
X013458Y018677D01*
X013535Y018600D01*
X013535Y018370D01*
X013535Y018523D02*
X013689Y018677D01*
X013689Y018830D02*
X013689Y019137D01*
X013689Y018984D02*
X013228Y018984D01*
X013382Y018830D01*
X013305Y019291D02*
X013228Y019368D01*
X013228Y019521D01*
X013305Y019598D01*
X013382Y019598D01*
X013689Y019291D01*
X013689Y019598D01*
X014478Y019521D02*
X014478Y019368D01*
X014555Y019291D01*
X014708Y019444D02*
X014708Y019521D01*
X014785Y019598D01*
X014862Y019598D01*
X014939Y019521D01*
X014939Y019368D01*
X014862Y019291D01*
X014939Y019137D02*
X014939Y018830D01*
X014939Y018677D02*
X014785Y018523D01*
X014785Y018600D02*
X014785Y018370D01*
X014939Y018370D02*
X014478Y018370D01*
X014478Y018600D01*
X014555Y018677D01*
X014708Y018677D01*
X014785Y018600D01*
X014632Y018830D02*
X014478Y018984D01*
X014939Y018984D01*
X014708Y019521D02*
X014632Y019598D01*
X014555Y019598D01*
X014478Y019521D01*
X013689Y018370D02*
X013228Y018370D01*
X014355Y015980D02*
X014279Y015904D01*
X014279Y015597D01*
X014355Y015520D01*
X014509Y015520D01*
X014585Y015597D01*
X014739Y015750D02*
X014969Y015980D01*
X014969Y015520D01*
X015046Y015750D02*
X014739Y015750D01*
X014585Y015904D02*
X014509Y015980D01*
X014355Y015980D01*
X016808Y015280D02*
X016808Y014820D01*
X016808Y014973D02*
X017038Y014973D01*
X017115Y015050D01*
X017115Y015204D01*
X017038Y015280D01*
X016808Y015280D01*
X016961Y014973D02*
X017115Y014820D01*
X017268Y014897D02*
X017268Y014973D01*
X017345Y015050D01*
X017498Y015050D01*
X017575Y014973D01*
X017575Y014897D01*
X017498Y014820D01*
X017345Y014820D01*
X017268Y014897D01*
X017345Y015050D02*
X017268Y015127D01*
X017268Y015204D01*
X017345Y015280D01*
X017498Y015280D01*
X017575Y015204D01*
X017575Y015127D01*
X017498Y015050D01*
X017498Y013880D02*
X017268Y013650D01*
X017575Y013650D01*
X017498Y013420D02*
X017498Y013880D01*
X017115Y013804D02*
X017115Y013650D01*
X017038Y013573D01*
X016808Y013573D01*
X016808Y013420D02*
X016808Y013880D01*
X017038Y013880D01*
X017115Y013804D01*
X016961Y013573D02*
X017115Y013420D01*
X017038Y012730D02*
X017115Y012654D01*
X017115Y012500D01*
X017038Y012423D01*
X016808Y012423D01*
X016808Y012270D02*
X016808Y012730D01*
X017038Y012730D01*
X017268Y012730D02*
X017575Y012730D01*
X017575Y012654D01*
X017268Y012347D01*
X017268Y012270D01*
X017115Y012270D02*
X016961Y012423D01*
X015046Y012230D02*
X014739Y012230D01*
X014739Y012000D01*
X014892Y012077D01*
X014969Y012077D01*
X015046Y012000D01*
X015046Y011847D01*
X014969Y011770D01*
X014816Y011770D01*
X014739Y011847D01*
X014585Y011847D02*
X014509Y011770D01*
X014355Y011770D01*
X014279Y011847D01*
X014279Y012154D01*
X014355Y012230D01*
X014509Y012230D01*
X014585Y012154D01*
X016808Y009480D02*
X017038Y009480D01*
X017115Y009404D01*
X017115Y009250D01*
X017038Y009173D01*
X016808Y009173D01*
X016808Y009020D02*
X016808Y009480D01*
X016961Y009173D02*
X017115Y009020D01*
X017268Y009097D02*
X017345Y009020D01*
X017498Y009020D01*
X017575Y009097D01*
X017575Y009173D01*
X017498Y009250D01*
X017268Y009250D01*
X017268Y009097D01*
X017268Y009250D02*
X017422Y009404D01*
X017575Y009480D01*
X017575Y008080D02*
X017268Y008080D01*
X017268Y007850D01*
X017422Y007927D01*
X017498Y007927D01*
X017575Y007850D01*
X017575Y007697D01*
X017498Y007620D01*
X017345Y007620D01*
X017268Y007697D01*
X017115Y007620D02*
X016961Y007773D01*
X017038Y007773D02*
X016808Y007773D01*
X016808Y007620D02*
X016808Y008080D01*
X017038Y008080D01*
X017115Y008004D01*
X017115Y007850D01*
X017038Y007773D01*
X020879Y005640D02*
X020879Y005120D01*
X020879Y005293D02*
X021139Y005293D01*
X021225Y005380D01*
X021225Y005554D01*
X021139Y005640D01*
X020879Y005640D01*
X021052Y005293D02*
X021225Y005120D01*
X021052Y004890D02*
X021225Y004717D01*
X021225Y004370D01*
X021394Y004457D02*
X021394Y004630D01*
X021481Y004717D01*
X021741Y004717D01*
X021741Y004890D02*
X021741Y004370D01*
X021481Y004370D01*
X021394Y004457D01*
X021225Y004630D02*
X020879Y004630D01*
X020879Y004717D02*
X020879Y004370D01*
X020965Y004140D02*
X020879Y004054D01*
X020965Y004140D02*
X021139Y004140D01*
X021225Y004054D01*
X021225Y003967D01*
X020879Y003620D01*
X021225Y003620D01*
X021394Y003707D02*
X021741Y004054D01*
X021741Y003707D01*
X021654Y003620D01*
X021481Y003620D01*
X021394Y003707D01*
X021394Y004054D01*
X021481Y004140D01*
X021654Y004140D01*
X021741Y004054D01*
X021910Y003967D02*
X022083Y004140D01*
X022083Y003620D01*
X021910Y003620D02*
X022257Y003620D01*
X022425Y003707D02*
X022512Y003620D01*
X022686Y003620D01*
X022772Y003707D01*
X022772Y003880D01*
X022686Y003967D01*
X022599Y003967D01*
X022425Y003880D01*
X022425Y004140D01*
X022772Y004140D01*
X022772Y004370D02*
X022772Y004630D01*
X022686Y004717D01*
X022599Y004630D01*
X022599Y004370D01*
X022425Y004370D02*
X022425Y004717D01*
X022512Y004717D01*
X022599Y004630D01*
X022257Y004630D02*
X022257Y004370D01*
X021997Y004370D01*
X021910Y004457D01*
X021997Y004543D01*
X022257Y004543D01*
X022257Y004630D02*
X022170Y004717D01*
X021997Y004717D01*
X021997Y005120D02*
X021910Y005207D01*
X021910Y005554D01*
X021997Y005640D01*
X022170Y005640D01*
X022257Y005554D01*
X022257Y005207D01*
X022170Y005120D01*
X021997Y005120D01*
X022425Y005207D02*
X022512Y005120D01*
X022686Y005120D01*
X022772Y005207D01*
X022772Y005293D01*
X022686Y005380D01*
X022512Y005380D01*
X022425Y005467D01*
X022425Y005554D01*
X022512Y005640D01*
X022686Y005640D01*
X022772Y005554D01*
X022941Y005640D02*
X022941Y005120D01*
X023201Y005120D01*
X023288Y005207D01*
X023288Y005293D01*
X023201Y005380D01*
X022941Y005380D01*
X023201Y005380D02*
X023288Y005467D01*
X023288Y005554D01*
X023201Y005640D01*
X022941Y005640D01*
X023457Y005380D02*
X023457Y005207D01*
X023543Y005120D01*
X023717Y005120D01*
X023804Y005207D01*
X023804Y005380D01*
X023717Y005467D01*
X023543Y005467D01*
X023457Y005380D01*
X023972Y005467D02*
X024146Y005467D01*
X024059Y005554D02*
X024059Y005207D01*
X024146Y005120D01*
X023804Y004890D02*
X023630Y004890D01*
X023717Y004890D02*
X023717Y004457D01*
X023630Y004370D01*
X023543Y004370D01*
X023457Y004457D01*
X023972Y004457D02*
X023972Y004630D01*
X024059Y004717D01*
X024233Y004717D01*
X024319Y004630D01*
X024319Y004543D01*
X023972Y004543D01*
X023972Y004457D02*
X024059Y004370D01*
X024233Y004370D01*
X024488Y004370D02*
X024748Y004370D01*
X024835Y004457D01*
X024748Y004543D01*
X024575Y004543D01*
X024488Y004630D01*
X024575Y004717D01*
X024835Y004717D01*
X025004Y004717D02*
X025090Y004717D01*
X025090Y004370D01*
X025004Y004370D02*
X025177Y004370D01*
X025347Y004457D02*
X025434Y004370D01*
X025608Y004370D01*
X025694Y004457D01*
X025694Y004630D01*
X025608Y004717D01*
X025434Y004717D01*
X025347Y004630D01*
X025347Y004457D01*
X025863Y004370D02*
X025863Y004717D01*
X026123Y004717D01*
X026210Y004630D01*
X026210Y004370D01*
X026379Y004457D02*
X026465Y004370D01*
X026639Y004370D01*
X026726Y004457D01*
X026726Y004630D01*
X026639Y004717D01*
X026465Y004717D01*
X026379Y004630D01*
X026379Y004457D01*
X026894Y004457D02*
X026981Y004370D01*
X027068Y004457D01*
X027155Y004370D01*
X027241Y004457D01*
X027241Y004717D01*
X027410Y004630D02*
X027497Y004717D01*
X027757Y004717D01*
X027670Y004543D02*
X027497Y004543D01*
X027410Y004630D01*
X027410Y004370D02*
X027670Y004370D01*
X027757Y004457D01*
X027670Y004543D01*
X027926Y004543D02*
X028186Y004717D01*
X028355Y004717D02*
X028442Y004717D01*
X028442Y004370D01*
X028355Y004370D02*
X028529Y004370D01*
X028186Y004370D02*
X027926Y004543D01*
X027926Y004370D02*
X027926Y004890D01*
X027499Y005120D02*
X027152Y005120D01*
X027499Y005467D01*
X027499Y005554D01*
X027412Y005640D01*
X027239Y005640D01*
X027152Y005554D01*
X026465Y005207D02*
X026465Y005120D01*
X026379Y005120D01*
X026379Y005207D01*
X026465Y005207D01*
X026210Y005467D02*
X026037Y005120D01*
X025863Y005467D01*
X025694Y005380D02*
X025694Y005293D01*
X025347Y005293D01*
X025347Y005207D02*
X025347Y005380D01*
X025434Y005467D01*
X025608Y005467D01*
X025694Y005380D01*
X025608Y005120D02*
X025434Y005120D01*
X025347Y005207D01*
X025179Y005120D02*
X025005Y005293D01*
X025092Y005293D02*
X024832Y005293D01*
X024832Y005120D02*
X024832Y005640D01*
X025092Y005640D01*
X025179Y005554D01*
X025179Y005380D01*
X025092Y005293D01*
X025090Y004977D02*
X025090Y004890D01*
X026894Y004717D02*
X026894Y004457D01*
X028442Y004890D02*
X028442Y004977D01*
X021741Y005640D02*
X021394Y005640D01*
X021568Y005640D02*
X021568Y005120D01*
X021052Y004890D02*
X020879Y004717D01*
X009546Y006547D02*
X009469Y006470D01*
X009316Y006470D01*
X009239Y006547D01*
X009239Y006623D01*
X009316Y006700D01*
X009469Y006700D01*
X009546Y006623D01*
X009546Y006547D01*
X009469Y006700D02*
X009546Y006777D01*
X009546Y006854D01*
X009469Y006930D01*
X009316Y006930D01*
X009239Y006854D01*
X009239Y006777D01*
X009316Y006700D01*
X009085Y006547D02*
X009009Y006470D01*
X008855Y006470D01*
X008779Y006547D01*
X008779Y006854D01*
X008855Y006930D01*
X009009Y006930D01*
X009085Y006854D01*
X027228Y018870D02*
X027228Y019100D01*
X027305Y019177D01*
X027458Y019177D01*
X027535Y019100D01*
X027535Y018870D01*
X027535Y019023D02*
X027689Y019177D01*
X027689Y019330D02*
X027382Y019637D01*
X027305Y019637D01*
X027228Y019561D01*
X027228Y019407D01*
X027305Y019330D01*
X027689Y019330D02*
X027689Y019637D01*
X027689Y018870D02*
X027228Y018870D01*
X028728Y018870D02*
X028728Y019100D01*
X028805Y019177D01*
X028958Y019177D01*
X029035Y019100D01*
X029035Y018870D01*
X029035Y019023D02*
X029189Y019177D01*
X029112Y019330D02*
X029189Y019407D01*
X029189Y019561D01*
X029112Y019637D01*
X029035Y019637D01*
X028958Y019561D01*
X028958Y019484D01*
X028958Y019561D02*
X028882Y019637D01*
X028805Y019637D01*
X028728Y019561D01*
X028728Y019407D01*
X028805Y019330D01*
X028728Y018870D02*
X029189Y018870D01*
X007196Y020647D02*
X007196Y020954D01*
X007119Y021030D01*
X006966Y021030D01*
X006889Y020954D01*
X006889Y020877D01*
X006966Y020800D01*
X007196Y020800D01*
X007196Y020647D02*
X007119Y020570D01*
X006966Y020570D01*
X006889Y020647D01*
X006735Y020570D02*
X006582Y020723D01*
X006659Y020723D02*
X006429Y020723D01*
X006429Y020570D02*
X006429Y021030D01*
X006659Y021030D01*
X006735Y020954D01*
X006735Y020800D01*
X006659Y020723D01*
X005829Y021670D02*
X005676Y021670D01*
X005599Y021747D01*
X005906Y022054D01*
X005906Y021747D01*
X005829Y021670D01*
X005599Y021747D02*
X005599Y022054D01*
X005676Y022130D01*
X005829Y022130D01*
X005906Y022054D01*
X005446Y021670D02*
X005139Y021670D01*
X005292Y021670D02*
X005292Y022130D01*
X005139Y021977D01*
X004985Y022054D02*
X004985Y021900D01*
X004909Y021823D01*
X004679Y021823D01*
X004832Y021823D02*
X004985Y021670D01*
X004679Y021670D02*
X004679Y022130D01*
X004909Y022130D01*
X004985Y022054D01*
X004972Y019730D02*
X004972Y019270D01*
X005125Y019270D02*
X004818Y019270D01*
X004665Y019347D02*
X004588Y019270D01*
X004434Y019270D01*
X004358Y019347D01*
X004358Y019654D01*
X004434Y019730D01*
X004588Y019730D01*
X004665Y019654D01*
X004818Y019577D02*
X004972Y019730D01*
D11*
X009269Y019777D02*
X009330Y019715D01*
X009454Y019715D01*
X009515Y019777D01*
X009515Y019838D01*
X009454Y019900D01*
X009392Y019900D01*
X009454Y019900D02*
X009515Y019962D01*
X009515Y020024D01*
X009454Y020085D01*
X009330Y020085D01*
X009269Y020024D01*
X009637Y020085D02*
X009637Y019838D01*
X009760Y019715D01*
X009884Y019838D01*
X009884Y020085D01*
X010005Y020024D02*
X010067Y020085D01*
X010190Y020085D01*
X010252Y020024D01*
X010252Y019962D01*
X010190Y019900D01*
X010252Y019838D01*
X010252Y019777D01*
X010190Y019715D01*
X010067Y019715D01*
X010005Y019777D01*
X010129Y019900D02*
X010190Y019900D01*
X010519Y019900D02*
X010580Y019962D01*
X010765Y019962D01*
X010765Y019653D01*
X010704Y019592D01*
X010642Y019592D01*
X010580Y019715D02*
X010765Y019715D01*
X010887Y019715D02*
X010887Y019962D01*
X011072Y019962D01*
X011134Y019900D01*
X011134Y019715D01*
X011255Y019777D02*
X011255Y019900D01*
X011317Y019962D01*
X011502Y019962D01*
X011502Y020085D02*
X011502Y019715D01*
X011317Y019715D01*
X011255Y019777D01*
X010580Y019715D02*
X010519Y019777D01*
X010519Y019900D01*
X011723Y021115D02*
X011847Y021238D01*
X011723Y021362D01*
X012094Y021362D01*
X012094Y021483D02*
X011723Y021483D01*
X011723Y021668D01*
X011785Y021730D01*
X011908Y021730D01*
X011970Y021668D01*
X011970Y021483D01*
X011970Y021607D02*
X012094Y021730D01*
X012094Y022220D02*
X011723Y022220D01*
X012094Y022220D02*
X012094Y022467D01*
X012723Y022405D02*
X012723Y022220D01*
X013094Y022220D01*
X012970Y022220D02*
X012970Y022405D01*
X012908Y022467D01*
X012785Y022467D01*
X012723Y022405D01*
X012970Y022343D02*
X013094Y022467D01*
X013723Y022220D02*
X014094Y022220D01*
X014094Y022467D01*
X014723Y022405D02*
X014723Y022220D01*
X015094Y022220D01*
X014970Y022220D02*
X014970Y022405D01*
X014908Y022467D01*
X014785Y022467D01*
X014723Y022405D01*
X014970Y022343D02*
X015094Y022467D01*
X015094Y021730D02*
X014723Y021730D01*
X014723Y021483D02*
X015094Y021730D01*
X015094Y021483D02*
X014723Y021483D01*
X014723Y021362D02*
X014723Y021115D01*
X015094Y021115D01*
X015094Y021362D01*
X014908Y021238D02*
X014908Y021115D01*
X014094Y021115D02*
X014094Y021362D01*
X014094Y021483D02*
X013723Y021483D01*
X014094Y021730D01*
X013723Y021730D01*
X013723Y021362D02*
X013723Y021115D01*
X014094Y021115D01*
X013908Y021115D02*
X013908Y021238D01*
X013094Y021115D02*
X012723Y021115D01*
X012847Y021238D01*
X012723Y021362D01*
X013094Y021362D01*
X013094Y021483D02*
X012723Y021483D01*
X012723Y021668D01*
X012785Y021730D01*
X012908Y021730D01*
X012970Y021668D01*
X012970Y021483D01*
X012970Y021607D02*
X013094Y021730D01*
X012094Y021115D02*
X011723Y021115D01*
X022473Y019168D02*
X022473Y019045D01*
X022535Y018983D01*
X022597Y018983D01*
X022658Y019045D01*
X022658Y019168D01*
X022720Y019230D01*
X022782Y019230D01*
X022844Y019168D01*
X022844Y019045D01*
X022782Y018983D01*
X022782Y018862D02*
X022844Y018800D01*
X022844Y018677D01*
X022782Y018615D01*
X022535Y018615D01*
X022473Y018677D01*
X022473Y018800D01*
X022535Y018862D01*
X022473Y019168D02*
X022535Y019230D01*
X023473Y019168D02*
X023535Y019230D01*
X023782Y019230D01*
X023844Y019168D01*
X023844Y019045D01*
X023782Y018983D01*
X023535Y018983D01*
X023473Y019045D01*
X023473Y019168D01*
X023535Y019352D02*
X023597Y019352D01*
X023658Y019413D01*
X023658Y019537D01*
X023720Y019599D01*
X023782Y019599D01*
X023844Y019537D01*
X023844Y019413D01*
X023782Y019352D01*
X023535Y019352D02*
X023473Y019413D01*
X023473Y019537D01*
X023535Y019599D01*
X023473Y019720D02*
X023473Y019843D01*
X023473Y019782D02*
X023844Y019782D01*
X023844Y019843D02*
X023844Y019720D01*
X024473Y019659D02*
X024535Y019597D01*
X024782Y019597D01*
X024844Y019659D01*
X024844Y019782D01*
X024782Y019844D01*
X024535Y019844D01*
X024473Y019782D01*
X024473Y019659D01*
X024535Y019476D02*
X024473Y019414D01*
X024473Y019291D01*
X024535Y019229D01*
X024597Y019229D01*
X024658Y019291D01*
X024658Y019414D01*
X024720Y019476D01*
X024782Y019476D01*
X024844Y019414D01*
X024844Y019291D01*
X024782Y019229D01*
X024844Y019107D02*
X024844Y018983D01*
X024844Y019045D02*
X024473Y019045D01*
X024473Y018983D02*
X024473Y019107D01*
X024473Y018862D02*
X024844Y018862D01*
X024844Y018615D02*
X024473Y018615D01*
X024597Y018738D01*
X024473Y018862D01*
X023844Y018862D02*
X023473Y018862D01*
X023597Y018738D01*
X023473Y018615D01*
X023844Y018615D01*
X025473Y018550D02*
X025473Y018427D01*
X025535Y018365D01*
X025597Y018365D01*
X025658Y018427D01*
X025658Y018550D01*
X025720Y018612D01*
X025782Y018612D01*
X025844Y018550D01*
X025844Y018427D01*
X025782Y018365D01*
X025535Y018612D02*
X025473Y018550D01*
X025535Y018733D02*
X025782Y018733D01*
X025844Y018795D01*
X025844Y018918D01*
X025782Y018980D01*
X025844Y019102D02*
X025473Y019102D01*
X025535Y018980D02*
X025473Y018918D01*
X025473Y018795D01*
X025535Y018733D01*
X025844Y019102D02*
X025844Y019349D01*
X025844Y019470D02*
X025473Y019470D01*
X025658Y019532D02*
X025844Y019717D01*
X025720Y019470D02*
X025473Y019717D01*
X027523Y021527D02*
X027523Y021650D01*
X027585Y021712D01*
X027647Y021712D01*
X027708Y021650D01*
X027770Y021712D01*
X027832Y021712D01*
X027894Y021650D01*
X027894Y021527D01*
X027832Y021465D01*
X027708Y021588D02*
X027708Y021650D01*
X027770Y021833D02*
X027523Y021833D01*
X027770Y021833D02*
X027894Y021957D01*
X027770Y022080D01*
X027523Y022080D01*
X027585Y022202D02*
X027523Y022263D01*
X027523Y022387D01*
X027585Y022449D01*
X027647Y022449D01*
X027708Y022387D01*
X027770Y022449D01*
X027832Y022449D01*
X027894Y022387D01*
X027894Y022263D01*
X027832Y022202D01*
X027708Y022325D02*
X027708Y022387D01*
X028473Y022202D02*
X028844Y022202D01*
X028844Y022449D01*
X028782Y022080D02*
X028844Y022018D01*
X028844Y021895D01*
X028782Y021833D01*
X028535Y021833D01*
X028473Y021895D01*
X028473Y022018D01*
X028535Y022080D01*
X028535Y021712D02*
X028473Y021650D01*
X028473Y021527D01*
X028535Y021465D01*
X028597Y021465D01*
X028658Y021527D01*
X028658Y021650D01*
X028720Y021712D01*
X028782Y021712D01*
X028844Y021650D01*
X028844Y021527D01*
X028782Y021465D01*
X029473Y021527D02*
X029535Y021465D01*
X029597Y021465D01*
X029658Y021527D01*
X029658Y021650D01*
X029720Y021712D01*
X029782Y021712D01*
X029844Y021650D01*
X029844Y021527D01*
X029782Y021465D01*
X029473Y021527D02*
X029473Y021650D01*
X029535Y021712D01*
X029473Y021833D02*
X029473Y022018D01*
X029535Y022080D01*
X029782Y022080D01*
X029844Y022018D01*
X029844Y021833D01*
X029473Y021833D01*
X029597Y022202D02*
X029473Y022325D01*
X029597Y022449D01*
X029844Y022449D01*
X029658Y022449D02*
X029658Y022202D01*
X029597Y022202D02*
X029844Y022202D01*
X027585Y021465D02*
X027523Y021527D01*
X012094Y013009D02*
X012094Y012695D01*
X012094Y012852D02*
X011623Y012852D01*
X011780Y012695D01*
X011623Y012549D02*
X012015Y012549D01*
X012094Y012470D01*
X012094Y012313D01*
X012015Y012235D01*
X011623Y012235D01*
X010165Y011929D02*
X009852Y011615D01*
X010008Y011615D02*
X010008Y011929D01*
X009852Y011929D02*
X010165Y011615D01*
X010165Y011772D02*
X009852Y011772D01*
X003502Y010085D02*
X003255Y009715D01*
X003010Y009715D02*
X003010Y010085D01*
X002887Y010085D02*
X003134Y010085D01*
X003255Y010085D02*
X003502Y009715D01*
X002765Y009715D02*
X002519Y009715D01*
X002642Y009715D02*
X002642Y010085D01*
X002519Y009962D01*
X002397Y010085D02*
X002397Y009777D01*
X002335Y009715D01*
X002212Y009715D01*
X002150Y009777D01*
X002150Y010085D01*
X002330Y013465D02*
X002269Y013527D01*
X002330Y013465D02*
X002454Y013465D01*
X002515Y013527D01*
X002515Y013588D01*
X002454Y013650D01*
X002392Y013650D01*
X002454Y013650D02*
X002515Y013712D01*
X002515Y013774D01*
X002454Y013835D01*
X002330Y013835D01*
X002269Y013774D01*
X002637Y013835D02*
X002637Y013588D01*
X002760Y013465D01*
X002884Y013588D01*
X002884Y013835D01*
X003005Y013774D02*
X003067Y013835D01*
X003190Y013835D01*
X003252Y013774D01*
X003252Y013712D01*
X003190Y013650D01*
X003252Y013588D01*
X003252Y013527D01*
X003190Y013465D01*
X003067Y013465D01*
X003005Y013527D01*
X003129Y013650D02*
X003190Y013650D01*
X008474Y005457D02*
X008787Y005143D01*
X008630Y005143D02*
X008630Y005457D01*
X008787Y005457D02*
X008474Y005143D01*
X008474Y005300D02*
X008787Y005300D01*
X008807Y004835D02*
X008807Y004443D01*
X008729Y004365D01*
X008572Y004365D01*
X008494Y004443D01*
X008494Y004835D01*
X008954Y004757D02*
X009032Y004835D01*
X009189Y004835D01*
X009267Y004757D01*
X009267Y004679D01*
X008954Y004365D01*
X009267Y004365D01*
X012920Y002485D02*
X012920Y002115D01*
X012920Y002238D02*
X013105Y002238D01*
X013166Y002300D01*
X013166Y002424D01*
X013105Y002485D01*
X012920Y002485D01*
X013043Y002238D02*
X013166Y002115D01*
X013288Y002177D02*
X013350Y002115D01*
X013473Y002115D01*
X013535Y002177D01*
X013535Y002238D01*
X013473Y002300D01*
X013350Y002300D01*
X013288Y002362D01*
X013288Y002424D01*
X013350Y002485D01*
X013473Y002485D01*
X013535Y002424D01*
X013656Y002485D02*
X013903Y002485D01*
X013780Y002485D02*
X013780Y002115D01*
X014306Y002177D02*
X014367Y002115D01*
X014491Y002115D01*
X014552Y002177D01*
X014552Y002238D01*
X014491Y002300D01*
X014429Y002300D01*
X014491Y002300D02*
X014552Y002362D01*
X014552Y002424D01*
X014491Y002485D01*
X014367Y002485D01*
X014306Y002424D01*
X014674Y002485D02*
X014674Y002238D01*
X014797Y002115D01*
X014921Y002238D01*
X014921Y002485D01*
X015042Y002424D02*
X015104Y002485D01*
X015227Y002485D01*
X015289Y002424D01*
X015289Y002362D01*
X015227Y002300D01*
X015289Y002238D01*
X015289Y002177D01*
X015227Y002115D01*
X015104Y002115D01*
X015042Y002177D01*
X015166Y002300D02*
X015227Y002300D01*
X016677Y002177D02*
X016739Y002115D01*
X016863Y002115D01*
X016924Y002177D01*
X016924Y002300D01*
X016801Y002300D01*
X016677Y002177D02*
X016677Y002424D01*
X016739Y002485D01*
X016863Y002485D01*
X016924Y002424D01*
X017046Y002362D02*
X017231Y002362D01*
X017293Y002300D01*
X017293Y002115D01*
X017414Y002177D02*
X017414Y002300D01*
X017476Y002362D01*
X017661Y002362D01*
X017661Y002485D02*
X017661Y002115D01*
X017476Y002115D01*
X017414Y002177D01*
X017046Y002115D02*
X017046Y002362D01*
X018256Y002485D02*
X018256Y002238D01*
X018379Y002115D01*
X018502Y002238D01*
X018502Y002485D01*
X018624Y002362D02*
X018686Y002362D01*
X018686Y002115D01*
X018747Y002115D02*
X018624Y002115D01*
X018869Y002115D02*
X018869Y002362D01*
X019055Y002362D01*
X019116Y002300D01*
X019116Y002115D01*
X018686Y002485D02*
X018686Y002547D01*
X020474Y002424D02*
X020474Y002177D01*
X020720Y002424D01*
X020720Y002177D01*
X020659Y002115D01*
X020535Y002115D01*
X020474Y002177D01*
X020474Y002424D02*
X020535Y002485D01*
X020659Y002485D01*
X020720Y002424D01*
X021474Y002362D02*
X021597Y002485D01*
X021597Y002115D01*
X021474Y002115D02*
X021720Y002115D01*
X022474Y002115D02*
X022720Y002362D01*
X022720Y002424D01*
X022659Y002485D01*
X022535Y002485D01*
X022474Y002424D01*
X022474Y002115D02*
X022720Y002115D01*
X023474Y002177D02*
X023535Y002115D01*
X023659Y002115D01*
X023720Y002177D01*
X023720Y002238D01*
X023659Y002300D01*
X023597Y002300D01*
X023659Y002300D02*
X023720Y002362D01*
X023720Y002424D01*
X023659Y002485D01*
X023535Y002485D01*
X023474Y002424D01*
X024474Y002300D02*
X024720Y002300D01*
X024659Y002115D02*
X024659Y002485D01*
X024474Y002300D01*
X016304Y004837D02*
X016304Y005080D01*
X016304Y004837D02*
X016122Y004837D01*
X016061Y004898D01*
X016061Y005080D01*
X015579Y005141D02*
X015336Y004898D01*
X015397Y004837D01*
X015518Y004837D01*
X015579Y004898D01*
X015579Y005141D01*
X015518Y005201D01*
X015397Y005201D01*
X015336Y005141D01*
X015336Y004898D01*
X015217Y004837D02*
X014974Y004837D01*
X015095Y004837D02*
X015095Y005201D01*
X014974Y005080D01*
D12*
X001321Y002328D02*
X000731Y002328D01*
X000731Y003116D01*
X002109Y003116D01*
X002896Y002328D02*
X003723Y002328D01*
X005297Y002328D02*
X005967Y002328D01*
X005967Y005872D01*
X005337Y005872D01*
X003723Y005872D02*
X002896Y005872D01*
X002109Y005084D02*
X000731Y005084D01*
X000731Y003116D01*
X002108Y003116D02*
X002167Y003120D01*
X002226Y003129D01*
X002284Y003141D01*
X002341Y003156D01*
X002397Y003175D01*
X002452Y003198D01*
X002505Y003224D01*
X002557Y003253D01*
X002606Y003285D01*
X002654Y003321D01*
X002699Y003359D01*
X002742Y003400D01*
X002782Y003444D01*
X002819Y003490D01*
X002853Y003538D01*
X002884Y003589D01*
X002912Y003641D01*
X002936Y003695D01*
X002957Y003750D01*
X002975Y003807D01*
X002989Y003865D01*
X002999Y003923D01*
X003006Y003982D01*
X003009Y004041D01*
X003008Y004100D01*
X003009Y004159D01*
X003006Y004218D01*
X002999Y004277D01*
X002989Y004335D01*
X002975Y004393D01*
X002957Y004450D01*
X002936Y004505D01*
X002912Y004559D01*
X002884Y004611D01*
X002853Y004662D01*
X002819Y004710D01*
X002782Y004756D01*
X002742Y004800D01*
X002699Y004841D01*
X002654Y004879D01*
X002606Y004915D01*
X002557Y004947D01*
X002505Y004976D01*
X002452Y005002D01*
X002397Y005025D01*
X002341Y005044D01*
X002284Y005059D01*
X002226Y005071D01*
X002167Y005080D01*
X002108Y005084D01*
X001321Y005872D02*
X000731Y005872D01*
X000731Y005084D01*
X002609Y010350D02*
X003109Y010350D01*
X003359Y010600D01*
X003359Y011100D01*
X003109Y011350D01*
X003359Y011600D01*
X003359Y012100D01*
X003109Y012350D01*
X003359Y012600D01*
X003359Y013100D01*
X003109Y013350D01*
X002609Y013350D01*
X002359Y013100D01*
X002359Y012600D01*
X002609Y012350D01*
X002359Y012100D01*
X002359Y011600D01*
X002609Y011350D01*
X002359Y011100D01*
X002359Y010600D01*
X002609Y010350D01*
X002609Y015850D02*
X003109Y015850D01*
X003359Y016100D01*
X003359Y016600D01*
X003109Y016850D01*
X003359Y017100D01*
X003359Y017600D01*
X003109Y017850D01*
X003359Y018100D01*
X003359Y018600D01*
X003109Y018850D01*
X003359Y019100D01*
X003359Y019600D01*
X003109Y019850D01*
X003359Y020100D01*
X003359Y020600D01*
X003109Y020850D01*
X003359Y021100D01*
X003359Y021600D01*
X003109Y021850D01*
X002609Y021850D01*
X002359Y021600D01*
X002359Y021100D01*
X002609Y020850D01*
X002359Y020600D01*
X002359Y020100D01*
X002609Y019850D01*
X002359Y019600D01*
X002359Y019100D01*
X002609Y018850D01*
X002359Y018600D01*
X002359Y018100D01*
X002609Y017850D01*
X002359Y017600D01*
X002359Y017100D01*
X002609Y016850D01*
X002359Y016600D01*
X002359Y016100D01*
X002609Y015850D01*
X026359Y020350D02*
X026609Y020100D01*
X027109Y020100D01*
X027359Y020350D01*
X027609Y020100D01*
X028109Y020100D01*
X028359Y020350D01*
X028609Y020100D01*
X029109Y020100D01*
X029359Y020350D01*
X029609Y020100D01*
X030109Y020100D01*
X030359Y020350D01*
X030359Y020850D01*
X030109Y021100D01*
X029609Y021100D01*
X029359Y020850D01*
X029109Y021100D01*
X028609Y021100D01*
X028359Y020850D01*
X028109Y021100D01*
X027609Y021100D01*
X027359Y020850D01*
X027109Y021100D01*
X026609Y021100D01*
X026359Y020850D01*
X026359Y020350D01*
D13*
X026429Y021345D02*
X026354Y021420D01*
X026429Y021345D02*
X026504Y021345D01*
X026579Y021420D01*
X026579Y021795D01*
X026504Y021795D02*
X026654Y021795D01*
X026814Y021795D02*
X026814Y021345D01*
X026814Y021495D02*
X027039Y021495D01*
X027114Y021570D01*
X027114Y021720D01*
X027039Y021795D01*
X026814Y021795D01*
X027274Y021645D02*
X027424Y021795D01*
X027424Y021345D01*
X027274Y021345D02*
X027575Y021345D01*
X014723Y005964D02*
X011494Y005964D01*
X011494Y002736D01*
X014723Y002736D01*
X014723Y005964D01*
X014427Y005669D02*
X014427Y003031D01*
X004054Y012099D02*
X003978Y012024D01*
X004054Y012099D02*
X004054Y012174D01*
X003978Y012249D01*
X003603Y012249D01*
X003603Y012174D02*
X003603Y012324D01*
X003603Y012484D02*
X003603Y012709D01*
X003678Y012784D01*
X003828Y012784D01*
X003903Y012709D01*
X003903Y012484D01*
X004054Y012484D02*
X003603Y012484D01*
X003678Y012945D02*
X003603Y013020D01*
X003603Y013170D01*
X003678Y013245D01*
X003753Y013245D01*
X003828Y013170D01*
X003903Y013245D01*
X003978Y013245D01*
X004054Y013170D01*
X004054Y013020D01*
X003978Y012945D01*
X003828Y013095D02*
X003828Y013170D01*
X003808Y016175D02*
X003884Y016250D01*
X003884Y016400D01*
X003808Y016475D01*
X003733Y016475D01*
X003658Y016400D01*
X003658Y016250D01*
X003583Y016175D01*
X003508Y016175D01*
X003433Y016250D01*
X003433Y016400D01*
X003508Y016475D01*
X003583Y016635D02*
X003433Y016786D01*
X003884Y016786D01*
X003884Y016936D02*
X003884Y016635D01*
X003978Y020524D02*
X004054Y020599D01*
X004054Y020674D01*
X003978Y020749D01*
X003603Y020749D01*
X003603Y020674D02*
X003603Y020824D01*
X003603Y020984D02*
X003603Y021209D01*
X003678Y021284D01*
X003828Y021284D01*
X003903Y021209D01*
X003903Y020984D01*
X004054Y020984D02*
X003603Y020984D01*
X003678Y021445D02*
X003603Y021520D01*
X003603Y021670D01*
X003678Y021745D01*
X003753Y021745D01*
X004054Y021445D01*
X004054Y021745D01*
D14*
X009537Y009771D03*
X009537Y009229D03*
X009887Y002121D03*
X009887Y001579D03*
D15*
X010040Y001850D03*
X009690Y009500D03*
D16*
X006778Y009020D02*
X006049Y009020D01*
X006049Y009980D02*
X006778Y009980D01*
X009789Y012250D02*
X013929Y012250D01*
X013929Y014450D01*
X009789Y014450D01*
X009789Y013470D01*
X009789Y013230D01*
X009789Y012250D01*
X010119Y012250D02*
X010119Y011740D01*
X010269Y011740D01*
X010269Y012250D01*
X010119Y012250D01*
X010379Y012250D02*
X010379Y011740D01*
X010529Y011740D01*
X010529Y012250D01*
X010379Y012250D01*
X010629Y012250D02*
X010629Y011740D01*
X010779Y011740D01*
X010779Y012250D01*
X010629Y012250D01*
X010889Y012250D02*
X010889Y011740D01*
X011039Y011740D01*
X011039Y012250D01*
X010889Y012250D01*
X011149Y012250D02*
X011149Y011740D01*
X011299Y011740D01*
X011299Y012250D01*
X011149Y012250D01*
X011399Y012250D02*
X011399Y011740D01*
X011549Y011740D01*
X011549Y012250D01*
X011399Y012250D01*
X011659Y012250D02*
X011659Y011740D01*
X011809Y011740D01*
X011809Y012250D01*
X011659Y012250D01*
X011909Y012250D02*
X011909Y011740D01*
X012059Y011740D01*
X012059Y012250D01*
X011909Y012250D01*
X012169Y012250D02*
X012169Y011740D01*
X012319Y011740D01*
X012319Y012250D01*
X012169Y012250D01*
X012419Y012250D02*
X012419Y011740D01*
X012569Y011740D01*
X012569Y012250D01*
X012419Y012250D01*
X012679Y012250D02*
X012679Y011740D01*
X012829Y011740D01*
X012829Y012250D01*
X012679Y012250D01*
X012939Y012250D02*
X012939Y011740D01*
X013089Y011740D01*
X013089Y012250D01*
X012939Y012250D01*
X013189Y012250D02*
X013189Y011740D01*
X013339Y011740D01*
X013339Y012250D01*
X013189Y012250D01*
X013449Y012250D02*
X013449Y011740D01*
X013599Y011740D01*
X013599Y012250D01*
X013449Y012250D01*
X013449Y014450D02*
X013449Y014960D01*
X013599Y014960D01*
X013599Y014450D01*
X013449Y014450D01*
X013339Y014450D02*
X013339Y014960D01*
X013189Y014960D01*
X013189Y014450D01*
X013339Y014450D01*
X013089Y014450D02*
X013089Y014960D01*
X012939Y014960D01*
X012939Y014450D01*
X013089Y014450D01*
X012829Y014450D02*
X012829Y014960D01*
X012679Y014960D01*
X012679Y014450D01*
X012829Y014450D01*
X012569Y014450D02*
X012569Y014960D01*
X012419Y014960D01*
X012419Y014450D01*
X012569Y014450D01*
X012319Y014450D02*
X012319Y014960D01*
X012169Y014960D01*
X012169Y014450D01*
X012319Y014450D01*
X012059Y014450D02*
X012059Y014960D01*
X011909Y014960D01*
X011909Y014450D01*
X012059Y014450D01*
X011809Y014450D02*
X011809Y014960D01*
X011659Y014960D01*
X011659Y014450D01*
X011809Y014450D01*
X011549Y014450D02*
X011549Y014960D01*
X011399Y014960D01*
X011399Y014450D01*
X011549Y014450D01*
X011299Y014450D02*
X011299Y014960D01*
X011149Y014960D01*
X011149Y014450D01*
X011299Y014450D01*
X011039Y014450D02*
X011039Y014960D01*
X010889Y014960D01*
X010889Y014450D01*
X011039Y014450D01*
X010779Y014450D02*
X010779Y014960D01*
X010629Y014960D01*
X010629Y014450D01*
X010779Y014450D01*
X010529Y014450D02*
X010529Y014960D01*
X010379Y014960D01*
X010379Y014450D01*
X010529Y014450D01*
X010269Y014450D02*
X010269Y014960D01*
X010119Y014960D01*
X010119Y014450D01*
X010269Y014450D01*
X006559Y016500D02*
X006559Y016850D01*
X006559Y017800D01*
X006559Y018200D01*
X005759Y018550D02*
X005659Y018550D01*
X005659Y018650D01*
X005059Y018650D01*
X005059Y018550D01*
X004959Y018550D01*
X004159Y018200D02*
X004159Y017850D01*
X004159Y016850D01*
X004159Y016500D01*
X004959Y016150D02*
X005059Y016150D01*
X005059Y016050D01*
X005659Y016050D01*
X005659Y016150D01*
X005759Y016150D01*
X005259Y017350D02*
X005261Y017370D01*
X005267Y017388D01*
X005276Y017406D01*
X005288Y017421D01*
X005303Y017433D01*
X005321Y017442D01*
X005339Y017448D01*
X005359Y017450D01*
X005379Y017448D01*
X005397Y017442D01*
X005415Y017433D01*
X005430Y017421D01*
X005442Y017406D01*
X005451Y017388D01*
X005457Y017370D01*
X005459Y017350D01*
X005457Y017330D01*
X005451Y017312D01*
X005442Y017294D01*
X005430Y017279D01*
X005415Y017267D01*
X005397Y017258D01*
X005379Y017252D01*
X005359Y017250D01*
X005339Y017252D01*
X005321Y017258D01*
X005303Y017267D01*
X005288Y017279D01*
X005276Y017294D01*
X005267Y017312D01*
X005261Y017330D01*
X005259Y017350D01*
X004659Y017350D02*
X004661Y017402D01*
X004667Y017454D01*
X004677Y017506D01*
X004690Y017556D01*
X004707Y017606D01*
X004728Y017654D01*
X004753Y017700D01*
X004781Y017744D01*
X004812Y017786D01*
X004846Y017826D01*
X004883Y017863D01*
X004923Y017897D01*
X004965Y017928D01*
X005009Y017956D01*
X005055Y017981D01*
X005103Y018002D01*
X005153Y018019D01*
X005203Y018032D01*
X005255Y018042D01*
X005307Y018048D01*
X005359Y018050D01*
X005411Y018048D01*
X005463Y018042D01*
X005515Y018032D01*
X005565Y018019D01*
X005615Y018002D01*
X005663Y017981D01*
X005709Y017956D01*
X005753Y017928D01*
X005795Y017897D01*
X005835Y017863D01*
X005872Y017826D01*
X005906Y017786D01*
X005937Y017744D01*
X005965Y017700D01*
X005990Y017654D01*
X006011Y017606D01*
X006028Y017556D01*
X006041Y017506D01*
X006051Y017454D01*
X006057Y017402D01*
X006059Y017350D01*
X006057Y017298D01*
X006051Y017246D01*
X006041Y017194D01*
X006028Y017144D01*
X006011Y017094D01*
X005990Y017046D01*
X005965Y017000D01*
X005937Y016956D01*
X005906Y016914D01*
X005872Y016874D01*
X005835Y016837D01*
X005795Y016803D01*
X005753Y016772D01*
X005709Y016744D01*
X005663Y016719D01*
X005615Y016698D01*
X005565Y016681D01*
X005515Y016668D01*
X005463Y016658D01*
X005411Y016652D01*
X005359Y016650D01*
X005307Y016652D01*
X005255Y016658D01*
X005203Y016668D01*
X005153Y016681D01*
X005103Y016698D01*
X005055Y016719D01*
X005009Y016744D01*
X004965Y016772D01*
X004923Y016803D01*
X004883Y016837D01*
X004846Y016874D01*
X004812Y016914D01*
X004781Y016956D01*
X004753Y017000D01*
X004728Y017046D01*
X004707Y017094D01*
X004690Y017144D01*
X004677Y017194D01*
X004667Y017246D01*
X004661Y017298D01*
X004659Y017350D01*
X008999Y005210D02*
X008999Y003990D01*
X010219Y003990D01*
X010219Y005210D01*
X009729Y005210D01*
X009489Y005210D01*
X008999Y005210D01*
X008999Y005050D02*
X008609Y005050D01*
X008609Y004940D01*
X008999Y004940D01*
X008999Y005050D01*
X008999Y004850D02*
X008609Y004850D01*
X008609Y004740D01*
X008999Y004740D01*
X008999Y004850D01*
X008999Y004660D02*
X008609Y004650D01*
X008609Y004540D01*
X008999Y004540D01*
X008999Y004660D01*
X008999Y004460D02*
X008609Y004460D01*
X008609Y004350D01*
X008999Y004350D01*
X008999Y004460D01*
X008999Y004260D02*
X008609Y004260D01*
X008609Y004150D01*
X008999Y004150D01*
X008999Y004260D01*
X010219Y004260D02*
X010219Y004150D01*
X010609Y004150D01*
X010609Y004260D01*
X010219Y004260D01*
X010219Y004350D02*
X010609Y004350D01*
X010609Y004460D01*
X010219Y004460D01*
X010219Y004350D01*
X010219Y004540D02*
X010609Y004550D01*
X010609Y004660D01*
X010219Y004660D01*
X010219Y004540D01*
X010219Y004740D02*
X010609Y004740D01*
X010609Y004850D01*
X010219Y004850D01*
X010219Y004740D01*
X010219Y004940D02*
X010609Y004940D01*
X010609Y005050D01*
X010219Y005050D01*
X010219Y004940D01*
X007728Y002330D02*
X006999Y002330D01*
X006999Y001370D02*
X007728Y001370D01*
D17*
X006559Y016850D02*
X006459Y016850D01*
X006459Y017800D01*
X006559Y017800D01*
X004259Y017850D02*
X004259Y016850D01*
X004159Y016850D01*
X004159Y017850D02*
X004259Y017850D01*
D18*
X009789Y013470D02*
X009810Y013468D01*
X009830Y013463D01*
X009849Y013454D01*
X009866Y013442D01*
X009881Y013427D01*
X009893Y013410D01*
X009902Y013391D01*
X009907Y013371D01*
X009909Y013350D01*
X009907Y013329D01*
X009902Y013309D01*
X009893Y013290D01*
X009881Y013273D01*
X009866Y013258D01*
X009849Y013246D01*
X009830Y013237D01*
X009810Y013232D01*
X009789Y013230D01*
X009729Y005210D02*
X009727Y005189D01*
X009722Y005169D01*
X009713Y005150D01*
X009701Y005133D01*
X009686Y005118D01*
X009669Y005106D01*
X009650Y005097D01*
X009630Y005092D01*
X009609Y005090D01*
X009588Y005092D01*
X009568Y005097D01*
X009549Y005106D01*
X009532Y005118D01*
X009517Y005133D01*
X009505Y005150D01*
X009496Y005169D01*
X009491Y005189D01*
X009489Y005210D01*
D19*
X020351Y017199D02*
X020401Y017199D01*
X020426Y017225D01*
X020426Y017350D01*
X020473Y017325D02*
X020498Y017350D01*
X020548Y017350D01*
X020574Y017325D01*
X020574Y017300D01*
X020548Y017275D01*
X020574Y017250D01*
X020574Y017225D01*
X020548Y017199D01*
X020498Y017199D01*
X020473Y017225D01*
X020523Y017275D02*
X020548Y017275D01*
X020351Y017199D02*
X020326Y017225D01*
X020326Y017350D01*
D20*
X020071Y017776D02*
X022171Y017776D01*
X020071Y017776D02*
X020071Y016044D01*
X028710Y017737D02*
X031482Y017737D01*
X031486Y017179D01*
X031482Y006844D02*
X031482Y006459D01*
X029168Y006459D01*
X022171Y006459D02*
X020071Y006459D01*
X020071Y006494D01*
M02*
