G75*
%MOIN*%
%OFA0B0*%
%FSLAX24Y24*%
%IPPOS*%
%LPD*%
%AMOC8*
5,1,8,0,0,1.08239X$1,22.5*
%
%ADD10R,0.0820X0.0820*%
%ADD11C,0.0820*%
%ADD12C,0.0680*%
%ADD13OC8,0.0740*%
%ADD14C,0.0690*%
%ADD15C,0.0880*%
%ADD16C,0.0476*%
D10*
X026859Y020600D03*
D11*
X027859Y020600D03*
X028859Y020600D03*
X029859Y020600D03*
X002859Y020350D03*
X002859Y019350D03*
X002859Y018350D03*
X002859Y017350D03*
X002859Y016350D03*
X002859Y012850D03*
X002859Y011850D03*
X002859Y010850D03*
X002859Y021350D03*
D12*
X004469Y018930D02*
X004469Y018330D01*
X006249Y018330D02*
X006249Y018930D01*
X006249Y016370D02*
X006249Y015770D01*
X004469Y015770D02*
X004469Y016370D01*
D13*
X010009Y020600D03*
X011009Y020600D03*
X012009Y020600D03*
X013009Y020600D03*
X014009Y020600D03*
X015009Y020600D03*
X016009Y020600D03*
X017009Y020600D03*
X018609Y020600D03*
X019609Y020600D03*
X020609Y020600D03*
X021609Y020600D03*
X022609Y020600D03*
X023609Y020600D03*
X024609Y020600D03*
X025609Y020600D03*
X025609Y001600D03*
X024609Y001600D03*
X023609Y001600D03*
X022609Y001600D03*
X021609Y001600D03*
X020609Y001600D03*
X018609Y001600D03*
X017609Y001600D03*
X016609Y001600D03*
X015609Y001600D03*
X014609Y001600D03*
X013609Y001600D03*
D14*
X029282Y007250D03*
X029282Y016801D03*
D15*
X002109Y004100D03*
X003909Y004100D03*
D16*
X013509Y008150D03*
X015359Y009850D03*
X018609Y012600D03*
X018859Y014350D03*
X015359Y014000D03*
X014109Y014350D03*
X013359Y015400D03*
X011809Y014000D03*
X011109Y014000D03*
X010609Y014000D03*
X010209Y012550D03*
X008609Y012600D03*
X008109Y016350D03*
X014509Y017450D03*
X020609Y010850D03*
X021359Y007100D03*
M02*
