%
M48
M72
T01C0.0236
T02C0.0394
T03C0.0400
T04C0.0610
T05C0.0800
%
T01
X13509Y8150
X15359Y9850
X18609Y12600
X18859Y14350
X15359Y14000
X14109Y14350
X13359Y15400
X11809Y14000
X11109Y14000
X10609Y14000
X10209Y12550
X8609Y12600
X8109Y16350
X14509Y17450
X20609Y10850
X21359Y7100
T02
X21609Y1600
X22609Y1600
X23609Y1600
X24609Y1600
X25609Y1600
X20609Y1600
X18609Y1600
X17609Y1600
X16609Y1600
X15609Y1600
X14609Y1600
X13609Y1600
X14009Y20600
X15009Y20600
X16009Y20600
X17009Y20600
X18609Y20600
X19609Y20600
X20609Y20600
X21609Y20600
X22609Y20600
X23609Y20600
X24609Y20600
X25609Y20600
X13009Y20600
X12009Y20600
X11009Y20600
X10009Y20600
T03
X6249Y18630
X4469Y18630
X2859Y18350
X2859Y19350
X2859Y20350
X2859Y21350
X2859Y17350
X2859Y16350
X4469Y16070
X6249Y16070
X2859Y12850
X2859Y11850
X2859Y10850
X26859Y20600
X27859Y20600
X28859Y20600
X29859Y20600
T04
X29282Y16801
X29282Y7250
T05
X2109Y4100
X3909Y4100
M30
