G75*
%MOIN*%
%OFA0B0*%
%FSLAX24Y24*%
%IPPOS*%
%LPD*%
%AMOC8*
5,1,8,0,0,1.08239X$1,22.5*
%
%ADD10R,0.0592X0.0671*%
%ADD11R,0.0671X0.0592*%
%ADD12R,0.0820X0.0820*%
%ADD13C,0.0820*%
%ADD14R,0.0671X0.0946*%
%ADD15R,0.0671X0.0671*%
%ADD16R,0.0789X0.0789*%
%ADD17R,0.0671X0.0474*%
%ADD18R,0.0474X0.0671*%
%ADD19C,0.0680*%
%ADD20OC8,0.0740*%
%ADD21R,0.0250X0.0740*%
%ADD22R,0.0700X0.0190*%
%ADD23R,0.0789X0.0434*%
%ADD24R,0.0867X0.0631*%
%ADD25R,0.0789X0.0513*%
%ADD26C,0.0690*%
%ADD27R,0.1182X0.1025*%
%ADD28C,0.0880*%
%ADD29C,0.0476*%
D10*
X008774Y006050D03*
X009443Y006050D03*
X012824Y006950D03*
X013493Y006950D03*
X014274Y011350D03*
X014943Y011350D03*
X014943Y015100D03*
X014274Y015100D03*
X009443Y015100D03*
X008774Y015100D03*
X005243Y020150D03*
X004574Y020150D03*
D11*
X011459Y016435D03*
X011459Y015765D03*
X012609Y016765D03*
X012609Y017435D03*
X007409Y004685D03*
X007409Y004015D03*
D12*
X026859Y020600D03*
D13*
X027859Y020600D03*
X028859Y020600D03*
X029859Y020600D03*
X002859Y020350D03*
X002859Y019350D03*
X002859Y018350D03*
X002859Y017350D03*
X002859Y016350D03*
X002859Y012850D03*
X002859Y011850D03*
X002859Y010850D03*
X002859Y021350D03*
D14*
X011868Y004350D03*
X014349Y004350D03*
D15*
X010797Y001850D03*
X009420Y001850D03*
X009070Y009500D03*
X010447Y009500D03*
D16*
X006999Y009500D03*
X005818Y009500D03*
X006768Y001850D03*
X007949Y001850D03*
D17*
X017088Y008500D03*
X017829Y008500D03*
X017829Y009900D03*
X017088Y009900D03*
X017088Y013150D03*
X017829Y013150D03*
X017829Y014300D03*
X017088Y014300D03*
X017088Y015700D03*
X017829Y015700D03*
X007029Y020150D03*
X006288Y020150D03*
X005279Y021250D03*
X004538Y021250D03*
D18*
X014109Y018970D03*
X014109Y018230D03*
X015359Y018230D03*
X015359Y018970D03*
X028109Y018730D03*
X028109Y019470D03*
X029609Y019470D03*
X029609Y018730D03*
D19*
X006249Y018930D02*
X006249Y018330D01*
X004469Y018330D02*
X004469Y018930D01*
X004469Y016370D02*
X004469Y015770D01*
X006249Y015770D02*
X006249Y016370D01*
D20*
X010009Y020600D03*
X011009Y020600D03*
X012009Y020600D03*
X013009Y020600D03*
X014009Y020600D03*
X015009Y020600D03*
X016009Y020600D03*
X017009Y020600D03*
X018609Y020600D03*
X019609Y020600D03*
X020609Y020600D03*
X021609Y020600D03*
X022609Y020600D03*
X023609Y020600D03*
X024609Y020600D03*
X025609Y020600D03*
X025609Y001600D03*
X024609Y001600D03*
X023609Y001600D03*
X022609Y001600D03*
X021609Y001600D03*
X020609Y001600D03*
X018609Y001600D03*
X017609Y001600D03*
X016609Y001600D03*
X015609Y001600D03*
X014609Y001600D03*
X013609Y001600D03*
D21*
X013522Y011926D03*
X013266Y011926D03*
X013010Y011926D03*
X012754Y011926D03*
X012498Y011926D03*
X012242Y011926D03*
X011986Y011926D03*
X011731Y011926D03*
X011475Y011926D03*
X011219Y011926D03*
X010963Y011926D03*
X010707Y011926D03*
X010451Y011926D03*
X010195Y011926D03*
X010195Y014774D03*
X010451Y014774D03*
X010707Y014774D03*
X010963Y014774D03*
X011219Y014774D03*
X011475Y014774D03*
X011731Y014774D03*
X011986Y014774D03*
X012242Y014774D03*
X012498Y014774D03*
X012754Y014774D03*
X013010Y014774D03*
X013266Y014774D03*
X013522Y014774D03*
D22*
X010434Y004994D03*
X010434Y004797D03*
X010434Y004600D03*
X010434Y004403D03*
X010434Y004206D03*
X008784Y004206D03*
X008784Y004403D03*
X008784Y004600D03*
X008784Y004797D03*
X008784Y004994D03*
D23*
X019715Y008222D03*
X019715Y008891D03*
X019715Y009844D03*
X019715Y010828D03*
X019715Y011813D03*
X019715Y012502D03*
X019715Y013092D03*
X019715Y013781D03*
X019715Y014765D03*
X019715Y015750D03*
D24*
X027983Y017907D03*
X028435Y006293D03*
D25*
X019715Y006982D03*
D26*
X029282Y007250D03*
X029282Y016801D03*
D27*
X002109Y001856D03*
X004510Y001856D03*
X004510Y006344D03*
X002109Y006344D03*
D28*
X002109Y004100D03*
X003909Y004100D03*
D29*
X013509Y008150D03*
X015359Y009850D03*
X018609Y012600D03*
X018859Y014350D03*
X015359Y014000D03*
X014109Y014350D03*
X013359Y015400D03*
X011809Y014000D03*
X011109Y014000D03*
X010609Y014000D03*
X010209Y012550D03*
X008609Y012600D03*
X008109Y016350D03*
X014509Y017450D03*
X020609Y010850D03*
X021359Y007100D03*
M02*
